<?xml version="1.0" standalone="no"?>
<!DOCTYPE svg PUBLIC "-//W3C//DTD SVG 20010904//EN"
 "http://www.w3.org/TR/2001/REC-SVG-20010904/DTD/svg10.dtd">
<svg version="1.0" xmlns="http://www.w3.org/2000/svg"
 width="48.000000pt" height="48.000000pt" viewBox="0 0 48.000000 48.000000"
 preserveAspectRatio="xMidYMid meet">

<g transform="translate(0.000000,48.000000) scale(0.100000,-0.100000)"
fill="#000000" stroke="none">
<path d="M80 260 c0 -127 -4 -200 -10 -200 -5 0 -10 -9 -10 -20 0 -19 7 -20
175 -20 168 0 175 1 175 20 0 11 -4 20 -10 20 -6 0 -10 73 -10 200 l0 200
-155 0 -155 0 0 -200z m137 -17 l2 -183 -54 0 -55 0 0 178 c0 98 3 182 7 186
4 4 28 6 53 4 l45 -3 2 -182z m141 0 l2 -183 -55 0 -55 0 0 78 c0 47 5 83 12
90 9 9 9 15 0 24 -13 13 -17 160 -5 172 4 4 28 6 53 4 l45 -3 3 -182z"/>
<path d="M169 391 c17 -31 33 -37 29 -10 -2 13 -11 25 -21 27 -16 3 -17 1 -8
-17z"/>
<path d="M309 391 c17 -31 33 -37 29 -10 -2 13 -11 25 -21 27 -16 3 -17 1 -8
-17z"/>
</g>
</svg>
