<svg width="120" height="120" viewBox="0 0 120 120" fill="none" xmlns="http://www.w3.org/2000/svg">
<path d="M120 50C120 36.215 108.785 25 95 25H85V20C85 11.73 78.27 5 70 5H60V15H70C72.76 15 75 17.245 75 20V85H10V65H0V95H10.185C10.065 95.825 10 96.655 10 97.5C10 107.15 17.85 115 27.5 115C37.15 115 45 107.15 45 97.5C45 96.655 44.935 95.825 44.815 95H75.185C75.065 95.825 75 96.655 75 97.5C75 107.15 82.85 115 92.5 115C102.15 115 110 107.15 110 97.5C110 96.655 109.935 95.825 109.815 95H120V50ZM35 97.5C35 101.635 31.635 105 27.5 105C23.365 105 20 101.635 20 97.5C20 96.555 20.185 95.72 20.455 95H34.55C34.82 95.72 35 96.555 35 97.5ZM95 35C103.27 35 110 41.73 110 50V55H85V35H95ZM100 97.5C100 101.635 96.635 105 92.5 105C88.365 105 85 101.635 85 97.5C85 96.555 85.185 95.72 85.455 95H99.55C99.82 95.72 100 96.555 100 97.5ZM85 85V65H110V85H85ZM50 15H0V5H50V15ZM40 35H0V25H40V35ZM30 55H0V45H30V55Z" fill="black"/>
</svg>
