<svg width="120" height="120" viewBox="0 0 120 120" fill="none" xmlns="http://www.w3.org/2000/svg">
<path d="M120 92.9289C120 98.2691 117.92 103.289 114.14 107.069L107.07 114.14C103.295 117.92 98.27 120 92.93 120C87.59 120 82.565 117.92 78.785 114.14L65.335 100.689C63.38 98.7341 63.38 95.574 65.335 93.6189C67.29 91.6638 70.45 91.6638 72.405 93.6189L85.855 107.069C89.635 110.85 96.22 110.85 100 107.069L107.07 99.9992C108.96 98.1091 110 95.599 110 92.9289C110 90.2588 108.96 87.7487 107.07 85.8586L97.415 76.1982L90.34 83.2685C88.385 85.2235 85.225 85.2235 83.27 83.2685C81.315 81.3134 81.315 78.1533 83.27 76.1982L93.88 65.5927C95.835 63.6377 98.995 63.6377 100.95 65.5927L114.14 78.7883C117.92 82.5634 120 87.5837 120 92.9289ZM19.31 54.6623C20.285 55.6373 21.565 56.1273 22.845 56.1273C24.125 56.1273 25.405 55.6373 26.38 54.6623C28.335 52.7072 28.335 49.5471 26.38 47.592L12.93 34.1414C11.04 32.2513 10 29.7412 10 27.0711C10 24.401 11.04 21.8909 12.93 20.0008L20 12.9305C23.78 9.15038 30.365 9.15038 34.145 12.9305L43.805 22.5909L36.73 29.6612C34.775 31.6163 34.775 34.7765 36.73 36.7315C38.685 38.6866 41.845 38.6866 43.8 36.7315L54.41 26.1261C55.35 25.186 55.875 23.921 55.875 22.5909C55.875 21.2609 55.35 19.9908 54.41 19.0558L41.215 5.86024C33.66 -1.70507 20.485 -1.70507 12.93 5.85524L5.86 12.9255C2.08 16.7057 0 21.7259 0 27.0661C0 32.4063 2.08 37.4316 5.86 41.2067L19.31 54.6623ZM114.625 31.3413L34.75 111.21C29.09 116.88 21.555 120 13.54 120H5C2.24 120 0 117.765 0 115V106.459C0 98.4441 3.12 90.9138 8.785 85.2486L88.655 5.37022C95.81 -1.78507 107.46 -1.79507 114.62 5.37022C121.775 12.5305 121.775 24.181 114.62 31.3363L114.625 31.3413ZM88.625 43.1968L76.8 31.3713L15.855 92.3189C12.08 96.099 10 101.119 10 106.459V110H13.54C18.885 110 23.905 107.919 27.68 104.139L88.63 43.1918L88.625 43.1968ZM107.55 12.4455C104.29 9.18538 98.99 9.19038 95.725 12.4455L83.87 24.301L95.695 36.1265L107.55 24.271C110.805 21.0109 110.805 15.7057 107.55 12.4455Z" fill="black"/>
</svg>
