<svg width="120" height="120" viewBox="0 0 120 120" fill="none" xmlns="http://www.w3.org/2000/svg">
<path d="M91.0004 47.1339L93.2708 42.7636C95.1361 39.1633 95.4761 35.0679 94.2259 31.2126C92.9757 27.3573 90.2903 24.242 86.8548 22.5319L56.0549 5.44545C36.3218 -4.8104 21.4944 1.70014 14.4183 6.49054C11.4329 8.50571 9.78259 11.851 10.0026 15.4363C10.2177 18.9766 12.233 22.0568 15.3835 23.687L35.5067 34.5279L1.55129 98.3182C-2.06428 105.594 0.856181 114.555 8.06732 118.305C10.2377 119.435 12.593 120 14.9634 120C16.5287 120 18.1039 119.755 19.6391 119.255C23.4948 117.995 26.6152 115.3 28.3505 111.794L61.8908 48.7441L70.8772 53.5845C73.0426 54.6896 75.3579 55.2146 77.6483 55.2146C83.0792 55.2146 88.34 52.2594 91.0054 47.1389L91.0004 47.1339ZM19.4541 107.219C18.854 108.429 17.8189 109.324 16.5337 109.744C15.2435 110.164 13.8782 110.054 12.678 109.429C10.2777 108.184 9.30252 105.194 10.4427 102.894L44.313 39.2733L53.0844 43.9987L19.4541 107.219ZM84.3944 38.1532L82.129 42.5235C80.8638 44.9487 77.8433 45.9138 75.523 44.7187L20.0842 14.8612C20.0542 14.8462 20.0592 14.7862 20.0242 14.7712C23.7448 12.251 28.9056 9.98083 35.3716 9.98083C40.0274 9.98083 45.3582 11.1559 51.3242 14.2512L82.194 31.3726C83.3992 31.9777 84.2944 33.0128 84.7144 34.2979C85.1295 35.583 85.0195 36.9481 84.3944 38.1532ZM120 29.9875C120 32.7527 117.765 34.9879 114.999 34.9879H109.998C107.233 34.9879 104.998 32.7527 104.998 29.9875C104.998 27.2223 107.233 24.9871 109.998 24.9871H114.999C117.765 24.9871 120 27.2223 120 29.9875ZM100.262 66.9106C101.967 69.0858 101.587 72.221 99.4067 73.9262C98.4916 74.6462 97.4114 74.9912 96.3313 74.9912C94.846 74.9912 93.3758 74.3312 92.3906 73.0711L88.475 68.0707C86.7697 65.8955 87.1498 62.7602 89.3302 61.0551C91.5005 59.3449 94.641 59.73 96.3463 61.9102L100.262 66.9106ZM114.954 54.9446C114.034 56.5697 112.344 57.4898 110.594 57.4898C109.763 57.4898 108.918 57.2848 108.143 56.8447L103.702 54.3445C101.302 52.9894 100.447 49.9392 101.802 47.534C103.157 45.1388 106.203 44.2687 108.613 45.6338L113.054 48.134C115.454 49.4891 116.309 52.5394 114.954 54.9446Z" fill="black"/>
</svg>
